<svg width="37" height="37" viewBox="0 0 37 37" fill="none" xmlns="http://www.w3.org/2000/svg">
<g clip-path="url(#clip0)">
<path d="M13.4925 23.7941L16.7243 20.4007L20.4004 23.7941H26.7024L16.6839 13.9775L6.74609 23.7941H13.4925Z" fill="white"/>
<path d="M22.7437 8.03908L17.9768 12.8868L21.1278 16.1186L22.7437 14.5027L31.5908 23.3093C29.5709 28.6822 24.4 32.5199 18.3 32.5199C10.4629 32.5199 4.12054 26.1775 4.12054 18.3404C4.16093 10.5033 10.5033 4.16093 18.3404 4.16093C25.2888 4.16093 31.106 9.21061 32.2775 15.7954L36.5597 20.3199C36.6405 19.6735 36.6809 18.9868 36.6809 18.3404C36.6809 13.4523 34.7822 8.84703 31.308 5.37286C27.8338 1.89868 23.2285 0 18.3404 0C13.4119 0 8.84703 1.89868 5.37286 5.37286C1.89868 8.84703 0 13.4119 0 18.3404C0 23.2689 1.89868 27.8338 5.37286 31.308C8.84703 34.7822 13.4523 36.6809 18.3404 36.6809C23.2285 36.6809 27.8338 34.7822 31.308 31.308C33.4491 29.1669 34.9842 26.6219 35.8325 23.8345C35.9941 23.3497 36.1153 22.8245 36.2365 22.3398L32.5199 18.4212L22.7437 8.03908Z" fill="white"/>
</g>
<defs>
<clipPath id="clip0">
<rect width="36.6405" height="36.6405" fill="white"/>
</clipPath>
</defs>
</svg>
