<svg width="220" height="61" viewBox="0 0 220 61" fill="none" xmlns="http://www.w3.org/2000/svg">
<g clip-path="url(#clip0)">
<path d="M22.3401 39.3967L27.6911 33.7782L33.7779 39.3967H44.2124L27.6243 23.1431L11.1699 39.3967H22.3401Z" fill="#2D383F"/>
<path d="M37.6577 13.3106L29.7649 21.3371L34.9822 26.6881L37.6577 24.0126L52.306 38.5941C48.9617 47.4901 40.4001 53.8445 30.3 53.8445C17.3239 53.8445 6.82253 43.3431 6.82253 30.3669C6.88941 17.3908 17.3908 6.88941 30.3669 6.88941C41.8716 6.88941 51.5034 15.2504 53.4431 26.153L60.5332 33.6444C60.667 32.5742 60.7339 31.4371 60.7339 30.3669C60.7339 22.2735 57.5902 14.6484 51.8378 8.89604C46.0855 3.14371 38.4603 0 30.3669 0C22.2067 0 14.6484 3.14371 8.89604 8.89604C3.14371 14.6484 0 22.2067 0 30.3669C0 38.5272 3.14371 46.0855 8.89604 51.8378C14.6484 57.5902 22.2735 60.7339 30.3669 60.7339C38.4603 60.7339 46.0855 57.5902 51.8378 51.8378C55.3829 48.2928 57.9246 44.0789 59.3292 39.4636C59.5968 38.661 59.7974 37.7914 59.9981 36.9888L53.8445 30.5007L37.6577 13.3106Z" fill="#2D383F"/>
</g>
<path d="M86.3275 15.4953H91.4755L88.6675 29.6133H97.3515L96.5195 33.6953H82.6875L86.3275 15.4953ZM102.197 15.4953H107.345L103.705 33.6953H98.5566L102.197 15.4953ZM115.349 19.4733L114.543 23.4773H122.577L121.771 27.4553H113.763L112.515 33.6953H107.367L111.007 15.4953H125.255L124.449 19.4733H115.349ZM131.953 19.4733L131.355 22.5413H139.441L138.687 26.3893H130.575L129.925 29.7173H139.467L138.635 33.6953H124.049L127.689 15.4953H141.937L141.131 19.4733H131.953ZM148.2 19.5773H142.61L143.442 15.4953H159.744L158.912 19.5773H153.348L150.514 33.6953H145.366L148.2 19.5773ZM167.596 34.0593C165.758 34.0593 164.155 33.7213 162.786 33.0453C161.434 32.3693 160.385 31.4246 159.64 30.2113C158.912 28.998 158.548 27.6113 158.548 26.0513C158.548 23.9713 159.024 22.0993 159.978 20.4353C160.948 18.7713 162.292 17.4713 164.008 16.5353C165.741 15.5993 167.708 15.1313 169.91 15.1313C171.747 15.1313 173.342 15.4693 174.694 16.1453C176.063 16.8213 177.112 17.766 177.84 18.9793C178.585 20.1926 178.958 21.5793 178.958 23.1393C178.958 25.2193 178.472 27.0913 177.502 28.7553C176.548 30.4193 175.205 31.7193 173.472 32.6553C171.756 33.5913 169.797 34.0593 167.596 34.0593ZM168.038 29.7953C169.182 29.7953 170.187 29.5093 171.054 28.9373C171.92 28.3653 172.588 27.6026 173.056 26.6493C173.524 25.6786 173.758 24.6126 173.758 23.4513C173.758 22.2206 173.376 21.2413 172.614 20.5133C171.868 19.768 170.82 19.3953 169.468 19.3953C168.324 19.3953 167.318 19.6813 166.452 20.2533C165.585 20.8253 164.918 21.5966 164.45 22.5673C163.982 23.5206 163.748 24.578 163.748 25.7393C163.748 26.97 164.12 27.958 164.866 28.7033C165.628 29.4313 166.686 29.7953 168.038 29.7953ZM188.622 34.0593C187.045 34.0593 185.684 33.7993 184.54 33.2793C183.396 32.742 182.521 31.9793 181.914 30.9913C181.307 30.0033 181.004 28.842 181.004 27.5073C181.004 26.9526 181.073 26.3113 181.212 25.5833L183.24 15.4953H188.388L186.386 25.5053C186.282 26.0253 186.23 26.502 186.23 26.9353C186.23 28.842 187.235 29.7953 189.246 29.7953C190.338 29.7953 191.196 29.466 191.82 28.8073C192.461 28.1313 192.938 27.0306 193.25 25.5053L195.252 15.4953H200.322L198.268 25.8173C197.159 31.312 193.943 34.0593 188.622 34.0593ZM218.941 21.2933C218.941 22.9573 218.499 24.396 217.615 25.6093C216.731 26.8053 215.492 27.6806 213.897 28.2353L216.991 33.6953H211.609L208.905 28.8593H206.305L205.343 33.6953H200.195L203.835 15.4953H211.609C213.932 15.4953 215.735 16.0066 217.017 17.0293C218.3 18.052 218.941 19.4733 218.941 21.2933ZM213.741 21.7873C213.741 21.042 213.49 20.4873 212.987 20.1233C212.485 19.742 211.783 19.5513 210.881 19.5513H208.177L207.085 24.8813H210.153C211.297 24.8813 212.181 24.6126 212.805 24.0753C213.429 23.538 213.741 22.7753 213.741 21.7873Z" fill="#2D383F"/>
<path d="M85.967 51.1913C85.3641 51.1913 84.8163 51.058 84.3236 50.7913C83.8367 50.5189 83.4541 50.1479 83.1758 49.6783C82.9033 49.2088 82.7671 48.6813 82.7671 48.0958C82.7671 47.5103 82.9033 46.9828 83.1758 46.5132C83.4541 46.0437 83.8367 45.6756 84.3236 45.4089C84.8163 45.1364 85.3641 45.0002 85.967 45.0002C86.5699 45.0002 87.1119 45.1336 87.5931 45.4002C88.08 45.6669 88.4626 46.0379 88.7408 46.5132C89.0191 46.9828 89.1582 47.5103 89.1582 48.0958C89.1582 48.6813 89.0191 49.2117 88.7408 49.687C88.4626 50.1566 88.08 50.5247 87.5931 50.7913C87.1119 51.058 86.5699 51.1913 85.967 51.1913ZM85.967 50.6174C86.4482 50.6174 86.8829 50.5102 87.2713 50.2957C87.6597 50.0754 87.9641 49.774 88.1843 49.3914C88.4046 49.003 88.5148 48.5711 88.5148 48.0958C88.5148 47.6204 88.4046 47.1915 88.1843 46.8089C87.9641 46.4205 87.6597 46.119 87.2713 45.9045C86.8829 45.6843 86.4482 45.5741 85.967 45.5741C85.4859 45.5741 85.0482 45.6843 84.654 45.9045C84.2656 46.119 83.9584 46.4205 83.7323 46.8089C83.512 47.1915 83.4019 47.6204 83.4019 48.0958C83.4019 48.5711 83.512 49.003 83.7323 49.3914C83.9584 49.774 84.2656 50.0754 84.654 50.2957C85.0482 50.5102 85.4859 50.6174 85.967 50.6174ZM92.9023 46.5306C93.3313 46.5306 93.7197 46.6292 94.0675 46.8263C94.4153 47.0176 94.6878 47.29 94.8849 47.6436C95.082 47.9972 95.1805 48.4001 95.1805 48.8523C95.1805 49.3102 95.082 49.716 94.8849 50.0696C94.6878 50.4232 94.4153 50.6986 94.0675 50.8957C93.7255 51.087 93.3371 51.1826 92.9023 51.1826C92.5313 51.1826 92.1951 51.1073 91.8937 50.9566C91.598 50.8 91.3546 50.574 91.1633 50.2783V52.8261H90.5459V46.5654H91.1372V47.4697C91.3227 47.1683 91.5661 46.9364 91.8676 46.7741C92.1748 46.6118 92.5197 46.5306 92.9023 46.5306ZM92.8589 50.6348C93.1777 50.6348 93.4675 50.5624 93.7284 50.4174C93.9893 50.2667 94.1921 50.0551 94.3371 49.7827C94.4878 49.5102 94.5632 49.2001 94.5632 48.8523C94.5632 48.5045 94.4878 48.1972 94.3371 47.9306C94.1921 47.6581 93.9893 47.4465 93.7284 47.2958C93.4675 47.1451 93.1777 47.0697 92.8589 47.0697C92.5342 47.0697 92.2415 47.1451 91.9806 47.2958C91.7256 47.4465 91.5227 47.6581 91.3719 47.9306C91.227 48.1972 91.1546 48.5045 91.1546 48.8523C91.1546 49.2001 91.227 49.5102 91.3719 49.7827C91.5227 50.0551 91.7256 50.2667 91.9806 50.4174C92.2415 50.5624 92.5342 50.6348 92.8589 50.6348ZM99.7417 47.1132H97.1243V51.1392H96.507V46.5654H99.7417V47.1132ZM102.208 46.5306C102.805 46.5306 103.263 46.6813 103.582 46.9828C103.9 47.2784 104.06 47.719 104.06 48.3045V51.1392H103.469V50.4261C103.329 50.6638 103.124 50.8493 102.851 50.9826C102.585 51.116 102.266 51.1826 101.895 51.1826C101.385 51.1826 100.979 51.0609 100.677 50.8174C100.376 50.574 100.225 50.2522 100.225 49.8522C100.225 49.4639 100.364 49.1508 100.643 48.9131C100.927 48.6755 101.376 48.5566 101.99 48.5566H103.442V48.2784C103.442 47.8842 103.332 47.5856 103.112 47.3828C102.892 47.1741 102.57 47.0697 102.147 47.0697C101.857 47.0697 101.579 47.119 101.312 47.2175C101.045 47.3103 100.816 47.4407 100.625 47.6088L100.347 47.148C100.579 46.9509 100.857 46.8002 101.182 46.6958C101.506 46.5857 101.848 46.5306 102.208 46.5306ZM101.99 50.6957C102.338 50.6957 102.637 50.6174 102.886 50.4609C103.135 50.2986 103.321 50.0667 103.442 49.7653V49.0175H102.008C101.225 49.0175 100.834 49.2899 100.834 49.8349C100.834 50.1015 100.935 50.3131 101.138 50.4696C101.341 50.6203 101.625 50.6957 101.99 50.6957ZM105.703 46.5654H106.321V48.5914H109.199V46.5654H109.816V51.1392H109.199V49.1218H106.321V51.1392H105.703V46.5654ZM111.571 46.5654H112.188V50.2001L115.24 46.5654H115.788V51.1392H115.171V47.5045L112.128 51.1392H111.571V46.5654ZM119.69 48.7566C120.015 48.832 120.264 48.9624 120.438 49.1479C120.618 49.3334 120.708 49.5595 120.708 49.8262C120.708 50.0928 120.615 50.3305 120.429 50.5392C120.25 50.7479 120.003 50.9102 119.69 51.0261C119.377 51.1363 119.032 51.1913 118.655 51.1913C118.325 51.1913 118 51.145 117.682 51.0522C117.363 50.9537 117.084 50.8116 116.847 50.6261L117.056 50.1653C117.264 50.3218 117.508 50.4435 117.786 50.5305C118.064 50.6174 118.345 50.6609 118.629 50.6609C119.053 50.6609 119.397 50.5827 119.664 50.4261C119.937 50.2638 120.073 50.0464 120.073 49.774C120.073 49.5305 119.963 49.3421 119.742 49.2088C119.522 49.0697 119.221 49.0001 118.838 49.0001H118.055V48.5479H118.803C119.145 48.5479 119.421 48.4842 119.629 48.3566C119.838 48.2233 119.942 48.0465 119.942 47.8262C119.942 47.5827 119.824 47.3915 119.586 47.2523C119.354 47.1132 119.05 47.0436 118.673 47.0436C118.18 47.0436 117.693 47.1683 117.212 47.4175L117.038 46.9393C117.583 46.6552 118.148 46.5132 118.734 46.5132C119.082 46.5132 119.395 46.5654 119.673 46.6697C119.957 46.7683 120.177 46.9103 120.334 47.0958C120.496 47.2813 120.577 47.4958 120.577 47.7393C120.577 47.9711 120.496 48.1769 120.334 48.3566C120.177 48.5363 119.963 48.6697 119.69 48.7566ZM123.683 46.5306C124.28 46.5306 124.738 46.6813 125.057 46.9828C125.376 47.2784 125.535 47.719 125.535 48.3045V51.1392H124.944V50.4261C124.805 50.6638 124.599 50.8493 124.326 50.9826C124.06 51.116 123.741 51.1826 123.37 51.1826C122.86 51.1826 122.454 51.0609 122.153 50.8174C121.851 50.574 121.7 50.2522 121.7 49.8522C121.7 49.4639 121.84 49.1508 122.118 48.9131C122.402 48.6755 122.851 48.5566 123.466 48.5566H124.918V48.2784C124.918 47.8842 124.808 47.5856 124.587 47.3828C124.367 47.1741 124.045 47.0697 123.622 47.0697C123.332 47.0697 123.054 47.119 122.787 47.2175C122.521 47.3103 122.292 47.4407 122.1 47.6088L121.822 47.148C122.054 46.9509 122.332 46.8002 122.657 46.6958C122.982 46.5857 123.324 46.5306 123.683 46.5306ZM123.466 50.6957C123.813 50.6957 124.112 50.6174 124.361 50.4609C124.61 50.2986 124.796 50.0667 124.918 49.7653V49.0175H123.483C122.7 49.0175 122.309 49.2899 122.309 49.8349C122.309 50.1015 122.411 50.3131 122.613 50.4696C122.816 50.6203 123.1 50.6957 123.466 50.6957ZM131.944 50.6V52.287H131.361V51.1392H127.179V46.5654H127.796V50.6H130.587V46.5654H131.205V50.6H131.944ZM133.123 46.5654H133.74V50.2001L136.792 46.5654H137.34V51.1392H136.723V47.5045L133.679 51.1392H133.123V46.5654ZM142.622 46.5654V51.1392H142.057V49.6262H140.622H140.448L139.387 51.1392H138.718L139.857 49.5392C139.503 49.4407 139.231 49.2726 139.04 49.0349C138.848 48.7972 138.753 48.4958 138.753 48.1306C138.753 47.6204 138.927 47.232 139.274 46.9654C139.622 46.6987 140.098 46.5654 140.7 46.5654H142.622ZM139.379 48.1479C139.379 48.8262 139.811 49.1653 140.674 49.1653H142.057V47.1132H140.718C139.825 47.1132 139.379 47.4581 139.379 48.1479ZM150.762 46.5654V51.1392H150.145V47.1132H147.276V51.1392H146.658V46.5654H150.762ZM154.404 51.1826C153.964 51.1826 153.567 51.0841 153.213 50.887C152.859 50.6841 152.581 50.4058 152.378 50.0522C152.175 49.6986 152.074 49.2986 152.074 48.8523C152.074 48.4059 152.175 48.0059 152.378 47.6523C152.581 47.2987 152.859 47.0233 153.213 46.8263C153.567 46.6292 153.964 46.5306 154.404 46.5306C154.845 46.5306 155.242 46.6292 155.596 46.8263C155.949 47.0233 156.225 47.2987 156.422 47.6523C156.625 48.0059 156.726 48.4059 156.726 48.8523C156.726 49.2986 156.625 49.6986 156.422 50.0522C156.225 50.4058 155.949 50.6841 155.596 50.887C155.242 51.0841 154.845 51.1826 154.404 51.1826ZM154.404 50.6348C154.729 50.6348 155.019 50.5624 155.274 50.4174C155.535 50.2667 155.738 50.0551 155.883 49.7827C156.027 49.5102 156.1 49.2001 156.1 48.8523C156.1 48.5045 156.027 48.1943 155.883 47.9219C155.738 47.6494 155.535 47.4407 155.274 47.2958C155.019 47.1451 154.729 47.0697 154.404 47.0697C154.08 47.0697 153.787 47.1451 153.526 47.2958C153.271 47.4407 153.068 47.6494 152.917 47.9219C152.773 48.1943 152.7 48.5045 152.7 48.8523C152.7 49.2001 152.773 49.5102 152.917 49.7827C153.068 50.0551 153.271 50.2667 153.526 50.4174C153.787 50.5624 154.08 50.6348 154.404 50.6348ZM160.745 51.1392L159.293 49.2262L157.832 51.1392H157.136L158.945 48.7914L157.223 46.5654H157.919L159.293 48.3566L160.667 46.5654H161.345L159.623 48.7914L161.449 51.1392H160.745ZM164.187 51.1826C163.746 51.1826 163.349 51.0841 162.995 50.887C162.642 50.6841 162.364 50.4058 162.161 50.0522C161.958 49.6986 161.856 49.2986 161.856 48.8523C161.856 48.4059 161.958 48.0059 162.161 47.6523C162.364 47.2987 162.642 47.0233 162.995 46.8263C163.349 46.6292 163.746 46.5306 164.187 46.5306C164.627 46.5306 165.024 46.6292 165.378 46.8263C165.732 47.0233 166.007 47.2987 166.204 47.6523C166.407 48.0059 166.508 48.4059 166.508 48.8523C166.508 49.2986 166.407 49.6986 166.204 50.0522C166.007 50.4058 165.732 50.6841 165.378 50.887C165.024 51.0841 164.627 51.1826 164.187 51.1826ZM164.187 50.6348C164.511 50.6348 164.801 50.5624 165.056 50.4174C165.317 50.2667 165.52 50.0551 165.665 49.7827C165.81 49.5102 165.882 49.2001 165.882 48.8523C165.882 48.5045 165.81 48.1943 165.665 47.9219C165.52 47.6494 165.317 47.4407 165.056 47.2958C164.801 47.1451 164.511 47.0697 164.187 47.0697C163.862 47.0697 163.569 47.1451 163.308 47.2958C163.053 47.4407 162.85 47.6494 162.7 47.9219C162.555 48.1943 162.482 48.5045 162.482 48.8523C162.482 49.2001 162.555 49.5102 162.7 49.7827C162.85 50.0551 163.053 50.2667 163.308 50.4174C163.569 50.5624 163.862 50.6348 164.187 50.6348ZM172.263 50.6V52.2435H171.68V51.1392H167.585V52.2435H167.002V50.6H167.263C167.57 50.5827 167.779 50.3566 167.889 49.9218C167.999 49.487 168.075 48.8784 168.115 48.0958L168.176 46.5654H171.55V50.6H172.263ZM168.681 48.1306C168.652 48.7798 168.596 49.316 168.515 49.7392C168.434 50.1566 168.289 50.4435 168.081 50.6H170.933V47.1132H168.733L168.681 48.1306ZM175.353 51.1826C174.913 51.1826 174.515 51.0841 174.162 50.887C173.808 50.6841 173.53 50.4058 173.327 50.0522C173.124 49.6986 173.023 49.2986 173.023 48.8523C173.023 48.4059 173.124 48.0059 173.327 47.6523C173.53 47.2987 173.808 47.0233 174.162 46.8263C174.515 46.6292 174.913 46.5306 175.353 46.5306C175.794 46.5306 176.191 46.6292 176.544 46.8263C176.898 47.0233 177.173 47.2987 177.37 47.6523C177.573 48.0059 177.675 48.4059 177.675 48.8523C177.675 49.2986 177.573 49.6986 177.37 50.0522C177.173 50.4058 176.898 50.6841 176.544 50.887C176.191 51.0841 175.794 51.1826 175.353 51.1826ZM175.353 50.6348C175.678 50.6348 175.968 50.5624 176.223 50.4174C176.483 50.2667 176.686 50.0551 176.831 49.7827C176.976 49.5102 177.049 49.2001 177.049 48.8523C177.049 48.5045 176.976 48.1943 176.831 47.9219C176.686 47.6494 176.483 47.4407 176.223 47.2958C175.968 47.1451 175.678 47.0697 175.353 47.0697C175.028 47.0697 174.736 47.1451 174.475 47.2958C174.22 47.4407 174.017 47.6494 173.866 47.9219C173.721 48.1943 173.649 48.5045 173.649 48.8523C173.649 49.2001 173.721 49.5102 173.866 49.7827C174.017 50.0551 174.22 50.2667 174.475 50.4174C174.736 50.5624 175.028 50.6348 175.353 50.6348ZM181.907 48.774C182.527 48.9189 182.838 49.2928 182.838 49.8957C182.838 50.2957 182.69 50.6029 182.394 50.8174C182.098 51.0319 181.658 51.1392 181.072 51.1392H178.994V46.5654H181.012C181.533 46.5654 181.942 46.6668 182.238 46.8697C182.533 47.0726 182.681 47.3625 182.681 47.7393C182.681 47.9885 182.611 48.203 182.472 48.3827C182.339 48.5566 182.151 48.6871 181.907 48.774ZM179.594 48.6001H180.968C181.322 48.6001 181.591 48.5334 181.777 48.4001C181.968 48.2668 182.064 48.0726 182.064 47.8175C182.064 47.5625 181.968 47.3712 181.777 47.2436C181.591 47.1161 181.322 47.0523 180.968 47.0523H179.594V48.6001ZM181.046 50.6522C181.44 50.6522 181.736 50.5885 181.933 50.4609C182.13 50.3334 182.229 50.1334 182.229 49.8609C182.229 49.5885 182.139 49.3885 181.959 49.261C181.78 49.1276 181.496 49.061 181.107 49.061H179.594V50.6522H181.046ZM189.473 48.774C190.093 48.9189 190.404 49.2928 190.404 49.8957C190.404 50.2957 190.256 50.6029 189.96 50.8174C189.664 51.0319 189.224 51.1392 188.638 51.1392H186.56V46.5654H188.578C189.099 46.5654 189.508 46.6668 189.804 46.8697C190.099 47.0726 190.247 47.3625 190.247 47.7393C190.247 47.9885 190.177 48.203 190.038 48.3827C189.905 48.5566 189.717 48.6871 189.473 48.774ZM187.16 48.6001H188.534C188.888 48.6001 189.157 48.5334 189.343 48.4001C189.534 48.2668 189.63 48.0726 189.63 47.8175C189.63 47.5625 189.534 47.3712 189.343 47.2436C189.157 47.1161 188.888 47.0523 188.534 47.0523H187.16V48.6001ZM188.612 50.6522C189.006 50.6522 189.302 50.5885 189.499 50.4609C189.696 50.3334 189.795 50.1334 189.795 49.8609C189.795 49.5885 189.705 49.3885 189.525 49.261C189.346 49.1276 189.062 49.061 188.673 49.061H187.16V50.6522H188.612ZM197.361 47.1132H194.744V51.1392H194.126V46.5654H197.361V47.1132ZM199.928 51.1826C199.487 51.1826 199.09 51.0841 198.736 50.887C198.383 50.6841 198.105 50.4058 197.902 50.0522C197.699 49.6986 197.597 49.2986 197.597 48.8523C197.597 48.4059 197.699 48.0059 197.902 47.6523C198.105 47.2987 198.383 47.0233 198.736 46.8263C199.09 46.6292 199.487 46.5306 199.928 46.5306C200.368 46.5306 200.765 46.6292 201.119 46.8263C201.473 47.0233 201.748 47.2987 201.945 47.6523C202.148 48.0059 202.249 48.4059 202.249 48.8523C202.249 49.2986 202.148 49.6986 201.945 50.0522C201.748 50.4058 201.473 50.6841 201.119 50.887C200.765 51.0841 200.368 51.1826 199.928 51.1826ZM199.928 50.6348C200.252 50.6348 200.542 50.5624 200.797 50.4174C201.058 50.2667 201.261 50.0551 201.406 49.7827C201.551 49.5102 201.623 49.2001 201.623 48.8523C201.623 48.5045 201.551 48.1943 201.406 47.9219C201.261 47.6494 201.058 47.4407 200.797 47.2958C200.542 47.1451 200.252 47.0697 199.928 47.0697C199.603 47.0697 199.31 47.1451 199.049 47.2958C198.794 47.4407 198.592 47.6494 198.441 47.9219C198.296 48.1943 198.223 48.5045 198.223 48.8523C198.223 49.2001 198.296 49.5102 198.441 49.7827C198.592 50.0551 198.794 50.2667 199.049 50.4174C199.31 50.5624 199.603 50.6348 199.928 50.6348ZM205.925 46.5306C206.354 46.5306 206.743 46.6292 207.09 46.8263C207.438 47.0176 207.711 47.29 207.908 47.6436C208.105 47.9972 208.203 48.4001 208.203 48.8523C208.203 49.3102 208.105 49.716 207.908 50.0696C207.711 50.4232 207.438 50.6986 207.09 50.8957C206.748 51.087 206.36 51.1826 205.925 51.1826C205.554 51.1826 205.218 51.1073 204.917 50.9566C204.621 50.8 204.378 50.574 204.186 50.2783V52.8261H203.569V46.5654H204.16V47.4697C204.346 47.1683 204.589 46.9364 204.891 46.7741C205.198 46.6118 205.543 46.5306 205.925 46.5306ZM205.882 50.6348C206.201 50.6348 206.49 50.5624 206.751 50.4174C207.012 50.2667 207.215 50.0551 207.36 49.7827C207.511 49.5102 207.586 49.2001 207.586 48.8523C207.586 48.5045 207.511 48.1972 207.36 47.9306C207.215 47.6581 207.012 47.4465 206.751 47.2958C206.49 47.1451 206.201 47.0697 205.882 47.0697C205.557 47.0697 205.264 47.1451 205.004 47.2958C204.749 47.4465 204.546 47.6581 204.395 47.9306C204.25 48.1972 204.178 48.5045 204.178 48.8523C204.178 49.2001 204.25 49.5102 204.395 49.7827C204.546 50.0551 204.749 50.2667 205.004 50.4174C205.264 50.5624 205.557 50.6348 205.882 50.6348ZM211.452 48.1827C212.025 48.1885 212.463 48.3161 212.765 48.5653C213.066 48.8146 213.217 49.174 213.217 49.6436C213.217 50.1305 213.054 50.5044 212.73 50.7653C212.405 51.0261 211.941 51.1537 211.339 51.1479L209.53 51.1392V46.5654H210.147V48.1653L211.452 48.1827ZM213.982 46.5654H214.599V51.1392H213.982V46.5654ZM211.304 50.6783C211.727 50.6841 212.046 50.6 212.26 50.4261C212.481 50.2464 212.591 49.9856 212.591 49.6436C212.591 49.3073 212.483 49.0581 212.269 48.8958C212.054 48.7334 211.733 48.6494 211.304 48.6436L210.147 48.6262V50.6609L211.304 50.6783Z" fill="#2D383F"/>
<defs>
<clipPath id="clip0">
<rect width="60.667" height="60.667" fill="white"/>
</clipPath>
</defs>
</svg>
