<svg width="23" height="22" viewBox="0 0 23 22" fill="none" xmlns="http://www.w3.org/2000/svg">
<path d="M15.5681 7.10055C14.591 6.11113 13.2115 5.47092 11.717 5.47092C10.2226 5.47092 8.84309 6.08203 7.86594 7.10055C6.8888 8.08996 6.25653 9.48679 6.25653 11C6.25653 12.5132 6.8888 13.9101 7.86594 14.8995C8.84309 15.8889 10.2226 16.5291 11.717 16.5291C13.2115 16.5291 14.591 15.918 15.5681 14.8995C16.5453 13.9101 17.1775 12.5132 17.1775 11C17.1775 9.48679 16.574 8.08996 15.5681 7.10055ZM14.5335 13.8519C13.815 14.5794 12.8091 15.0159 11.717 15.0159C10.6249 15.0159 9.61905 14.5794 8.90057 13.8519C8.18208 13.1243 7.75099 12.1058 7.75099 11C7.75099 9.89419 8.18208 8.87568 8.90057 8.14817C9.61905 7.42065 10.6249 6.98415 11.717 6.98415C12.8091 6.98415 13.815 7.42065 14.5335 8.14817C15.252 8.87568 15.6831 9.89419 15.6831 11C15.6831 12.1058 15.252 13.1243 14.5335 13.8519Z" fill="white"/>
<path d="M21.8333 10.2434H19.6204C19.218 10.2434 18.8732 10.5926 18.8732 11C18.8732 11.4074 19.218 11.7566 19.6204 11.7566H21.8333C22.2357 11.7566 22.5806 11.4074 22.5806 11C22.5806 10.5926 22.2357 10.2434 21.8333 10.2434Z" fill="white"/>
<path d="M11.717 18.246C11.3147 18.246 10.9698 18.5952 10.9698 19.0026V21.2434C10.9698 21.6508 11.3147 22 11.717 22C12.1194 22 12.4643 21.6508 12.4643 21.2434V19.0026C12.4643 18.5952 12.1194 18.246 11.717 18.246Z" fill="white"/>
<path d="M19.3905 17.7222L17.8098 16.1216C17.5512 15.8306 17.0626 15.8306 16.7752 16.1216C16.4878 16.4126 16.4878 16.8782 16.7752 17.1693L18.3559 18.7698C18.6433 19.0608 19.1031 19.0608 19.3905 18.7698C19.6779 18.4788 19.6779 18.0132 19.3905 17.7222Z" fill="white"/>
<path d="M11.717 0C11.3147 0 10.9698 0.349205 10.9698 0.756611V2.99735C10.9698 3.40475 11.3147 3.75396 11.717 3.75396C12.1194 3.75396 12.4643 3.40475 12.4643 2.99735V0.756611C12.4643 0.349205 12.1194 0 11.717 0Z" fill="white"/>
<path d="M19.4192 3.23018C19.1318 2.93918 18.672 2.93918 18.3846 3.23018L16.8039 4.8307C16.5165 5.12171 16.5165 5.58732 16.8039 5.87832C17.0626 6.16932 17.5512 6.16932 17.8386 5.87832L19.4192 4.2778C19.7066 3.98679 19.7066 3.52118 19.4192 3.23018Z" fill="white"/>
<path d="M3.81368 10.2434H1.60074C1.19839 10.2434 0.853516 10.5926 0.853516 11C0.853516 11.4074 1.16965 11.7566 1.60074 11.7566H3.81368C4.21603 11.7566 4.56091 11.4074 4.56091 11C4.56091 10.5926 4.21603 10.2434 3.81368 10.2434Z" fill="white"/>
<path d="M6.63015 16.1216C6.3715 15.8306 5.88293 15.8306 5.59553 16.1216L4.01486 17.7222C3.72746 18.0132 3.72746 18.4788 4.01486 18.7698C4.30225 19.0608 4.76209 19.0608 5.04948 18.7698L6.63015 17.1693C6.91755 16.8782 6.91755 16.4126 6.63015 16.1216Z" fill="white"/>
<path d="M6.63015 4.8307L5.04948 3.23018C4.76209 2.93918 4.30225 2.93918 4.01486 3.23018C3.72746 3.52118 3.72746 3.98679 4.01486 4.2778L5.59553 5.87832C5.88293 6.16932 6.34276 6.16932 6.63015 5.87832C6.91755 5.58732 6.91755 5.12171 6.63015 4.8307Z" fill="white"/>
</svg>
