<svg width="17" height="10" viewBox="0 0 17 10" fill="none" xmlns="http://www.w3.org/2000/svg">
<path d="M16.4438 8.17953C16.401 8.10778 16.1359 7.5318 14.8604 6.34795C13.5251 5.10831 13.7044 5.3096 15.3128 3.16612C16.2924 1.8607 16.684 1.0635 16.5614 0.722698C16.4448 0.397838 15.7244 0.483537 15.7244 0.483537L13.3288 0.497488C13.3288 0.497488 13.1514 0.473572 13.0189 0.552296C12.8903 0.630023 12.8076 0.809393 12.8076 0.809393C12.8076 0.809393 12.4279 1.81985 11.9217 2.67883C10.8545 4.49147 10.427 4.58713 10.2526 4.47453C9.84699 4.21245 9.94863 3.42023 9.94863 2.8582C9.94863 1.10137 10.2147 0.368939 9.42945 0.179604C9.16837 0.116824 8.97704 0.0749709 8.31038 0.0679954C7.45538 0.0590269 6.73092 0.0709849 6.32136 0.271282C6.04832 0.404813 5.83806 0.702768 5.9666 0.719708C6.12505 0.740635 6.48379 0.816369 6.67412 1.07546C6.92026 1.40929 6.91129 2.16065 6.91129 2.16065C6.91129 2.16065 7.05279 4.22839 6.58145 4.48549C6.25758 4.66187 5.81414 4.30213 4.86248 2.65691C4.37519 1.81486 4.00648 0.883135 4.00648 0.883135C4.00648 0.883135 3.93573 0.709743 3.80918 0.617068C3.65572 0.504464 3.44047 0.46859 3.44047 0.46859L1.16247 0.482541C1.16247 0.482541 0.820666 0.492506 0.695107 0.640985C0.583499 0.77352 0.686138 1.04656 0.686138 1.04656C0.686138 1.04656 2.46988 5.21892 4.48879 7.32253C6.34129 9.25077 8.44391 9.12421 8.44391 9.12421H9.39657C9.39657 9.12421 9.68456 9.09232 9.83104 8.93388C9.96657 8.78839 9.96158 8.51535 9.96158 8.51535C9.96158 8.51535 9.94265 7.23684 10.5366 7.0485C11.1215 6.86315 11.8729 8.28416 12.6691 8.83124C13.271 9.24479 13.7284 9.15411 13.7284 9.15411L15.8579 9.12421C15.8579 9.12421 16.972 9.05545 16.4438 8.17953Z" fill="#2D383F"/>
</svg>
